<svg width="24" height="24" viewBox="0 0 24 24" fill="none" xmlns="http://www.w3.org/2000/svg">
<path d="M7.42859 6.34267C7.42859 8.8674 9.47529 10.9141 12 10.9141C14.5247 10.9141 16.5714 8.8674 16.5714 6.34267C16.5714 3.81794 14.5247 1.77124 12 1.77124" stroke="#2B3F6C" stroke-width="1.5" stroke-linecap="round"/>
<path d="M4 17.6966C4 16.7133 4.61811 15.8361 5.5441 15.5055C9.71886 14.0144 14.2811 14.0144 18.4559 15.5055C19.3818 15.8361 20 16.7133 20 17.6966V19.2C20 20.5571 18.7981 21.5996 17.4546 21.4076L16.3639 21.2518C13.4693 20.8383 10.5307 20.8383 7.63614 21.2518L6.54538 21.4076C5.20194 21.5996 4 20.5571 4 19.2V17.6966Z" stroke="#2B3F6C" stroke-width="1.5"/>
</svg>
